<svg width="49" height="48" viewBox="0 0 49 48" fill="none" xmlns="http://www.w3.org/2000/svg">
<path d="M24.5 44C21.7333 44 19.1333 43.475 16.7 42.425C14.2667 41.375 12.15 39.95 10.35 38.15C8.55 36.35 7.125 34.2333 6.075 31.8C5.025 29.3667 4.5 26.7667 4.5 24C4.5 21.2333 5.025 18.6333 6.075 16.2C7.125 13.7667 8.55 11.65 10.35 9.85C12.15 8.05 14.2667 6.625 16.7 5.575C19.1333 4.525 21.7333 4 24.5 4C27.2667 4 29.8667 4.525 32.3 5.575C34.7333 6.625 36.85 8.05 38.65 9.85C40.45 11.65 41.875 13.7667 42.925 16.2C43.975 18.6333 44.5 21.2333 44.5 24C44.5 26.7667 43.975 29.3667 42.925 31.8C41.875 34.2333 40.45 36.35 38.65 38.15C36.85 39.95 34.7333 41.375 32.3 42.425C29.8667 43.475 27.2667 44 24.5 44ZM24.5 40C26.3 40 28.0333 39.7083 29.7 39.125C31.3667 38.5417 32.9 37.7 34.3 36.6L11.9 14.2C10.8 15.6 9.95833 17.1333 9.375 18.8C8.79167 20.4667 8.5 22.2 8.5 24C8.5 28.4667 10.05 32.25 13.15 35.35C16.25 38.45 20.0333 40 24.5 40ZM37.1 33.8C38.2 32.4 39.0417 30.8667 39.625 29.2C40.2083 27.5333 40.5 25.8 40.5 24C40.5 19.5333 38.95 15.75 35.85 12.65C32.75 9.55 28.9667 8 24.5 8C22.7 8 20.9667 8.29167 19.3 8.875C17.6333 9.45833 16.1 10.3 14.7 11.4L37.1 33.8Z" fill="currentColor"/>
</svg>
