<svg width="16" height="16" viewBox="0 0 16 16" fill="none" xmlns="http://www.w3.org/2000/svg">
<path d="M8.00008 7.99992C8.36675 7.99992 8.68064 7.86936 8.94175 7.60825C9.20286 7.34714 9.33342 7.03325 9.33342 6.66658C9.33342 6.29992 9.20286 5.98603 8.94175 5.72492C8.68064 5.46381 8.36675 5.33325 8.00008 5.33325C7.63341 5.33325 7.31953 5.46381 7.05841 5.72492C6.7973 5.98603 6.66675 6.29992 6.66675 6.66658C6.66675 7.03325 6.7973 7.34714 7.05841 7.60825C7.31953 7.86936 7.63341 7.99992 8.00008 7.99992ZM8.00008 12.8999C9.35564 11.6555 10.3612 10.5249 11.0167 9.50825C11.6723 8.49158 12.0001 7.58881 12.0001 6.79992C12.0001 5.58881 11.614 4.59714 10.8417 3.82492C10.0695 3.0527 9.1223 2.66659 8.00008 2.66659C6.87786 2.66659 5.93064 3.0527 5.15841 3.82492C4.38619 4.59714 4.00008 5.58881 4.00008 6.79992C4.00008 7.58881 4.32786 8.49158 4.98341 9.50825C5.63897 10.5249 6.64453 11.6555 8.00008 12.8999ZM8.00008 14.6666C6.21119 13.1444 4.87508 11.7305 3.99175 10.4249C3.10841 9.11936 2.66675 7.91103 2.66675 6.79992C2.66675 5.13325 3.20286 3.80547 4.27508 2.81659C5.3473 1.8277 6.58897 1.33325 8.00008 1.33325C9.41119 1.33325 10.6529 1.8277 11.7251 2.81659C12.7973 3.80547 13.3334 5.13325 13.3334 6.79992C13.3334 7.91103 12.8917 9.11936 12.0084 10.4249C11.1251 11.7305 9.78897 13.1444 8.00008 14.6666Z" fill="currentColor"/>
</svg>
