<svg width="24" height="24" viewBox="0 0 24 24" fill="none" xmlns="http://www.w3.org/2000/svg">
<path d="M11.625 0.375C18.0469 0.375 23.25 5.57812 23.25 12C23.25 18.4219 18.0469 23.625 11.625 23.625C5.20312 23.625 0 18.4219 0 12C0 5.57812 5.20312 0.375 11.625 0.375ZM17.2969 8.34375C17.4844 7.59375 17.0156 7.26562 16.5 7.45312L5.29688 11.7656C4.54688 12.0469 4.54688 12.5156 5.15625 12.7031L8.01562 13.5938L14.6719 9.375C15 9.1875 15.2812 9.32812 15.0469 9.51562L9.65625 14.3906L9.46875 17.3438C9.75 17.3438 9.89062 17.2031 10.0312 17.0625L11.4375 15.7031L14.3438 17.8594C14.9062 18.1406 15.2812 18 15.4219 17.3438L17.2969 8.34375Z" fill="currentColor"/>
</svg>
