<svg width="27" height="16" viewBox="0 0 27 16" fill="none" xmlns="http://www.w3.org/2000/svg">
<path d="M25.5469 1.53125C25.1719 3.125 21.7969 7.90625 21.7969 7.90625C21.5156 8.375 21.375 8.60938 21.7969 9.125C21.9844 9.35938 25.5 12.7344 26.0156 14.3281C26.25 15.125 25.875 15.5 25.0781 15.5H22.3125C21.2812 15.5 20.9531 14.7031 19.0781 12.8281C17.4375 11.2344 16.7344 11 16.3125 11C15.4688 11 15.6094 11.3281 15.6094 14.4688C15.6094 15.125 15.375 15.5 13.6406 15.5C10.7344 15.5 7.5 13.7656 5.20312 10.4844C1.78125 5.65625 0.84375 2.04688 0.84375 1.29688C0.84375 0.875 1.03125 0.5 1.78125 0.5H4.54688C5.25 0.5 5.53125 0.828125 5.8125 1.57812C7.17188 5.51562 9.42188 8.98438 10.3594 8.98438C10.7344 8.98438 10.875 8.79688 10.875 7.90625V3.82812C10.7812 1.95312 9.79688 1.8125 9.79688 1.15625C9.79688 0.828125 10.0312 0.5 10.5 0.5H14.8125C15.4219 0.5 15.6094 0.828125 15.6094 1.53125V7.01562C15.6094 7.57812 15.8906 7.8125 16.0312 7.8125C16.4062 7.8125 16.6875 7.57812 17.3438 6.96875C19.3125 4.71875 20.7188 1.29688 20.7188 1.29688C20.9062 0.875 21.2344 0.5 21.9375 0.5H24.7031C25.5469 0.5 25.6875 0.96875 25.5469 1.53125Z" fill="currentColor"/>
</svg>
