<svg width="80" height="87" viewBox="0 0 80 87" fill="none" xmlns="http://www.w3.org/2000/svg">
<path d="M80 42.9128C80 43.595 79.4459 44.1491 78.7637 44.1491H1.23624C0.554051 44.1491 0 43.5968 0 42.9128C0 42.2306 0.554051 41.6766 1.23624 41.6766H78.7637C79.4459 41.6766 80 42.2288 80 42.9128Z" fill="#8905D1"/>
<path d="M10.8102 38.9117C10.8102 39.1644 10.7615 39.3431 10.664 39.4496C10.5666 39.556 10.3825 39.6102 10.1118 39.6102H8.57235C8.14644 39.6102 7.7873 39.4748 7.49674 39.2041C7.20618 38.9334 7.05999 38.5743 7.05999 38.1285V21.303H3.83494V38.1285C3.83494 38.5743 3.68876 38.9334 3.3982 39.2041C3.10764 39.4748 2.7485 39.6102 2.32258 39.6102H0.783147C0.512438 39.6102 0.328355 39.5578 0.230899 39.4496C0.133444 39.3431 0.0847168 39.1644 0.0847168 38.9117V1.22C0.0847168 0.969146 0.122616 0.794083 0.200219 0.696628C0.277823 0.599173 0.461904 0.550446 0.752466 0.550446H2.38033C2.76835 0.550446 3.10764 0.680388 3.3982 0.942074C3.68876 1.20376 3.83494 1.55749 3.83494 2.00326V18.161H7.05999V2.00326C7.05999 1.55749 7.20618 1.20376 7.49674 0.942074C7.7873 0.680388 8.12659 0.550446 8.5146 0.550446H10.1425C10.433 0.550446 10.6171 0.599173 10.6947 0.696628C10.7723 0.794083 10.8102 0.967342 10.8102 1.22V38.9117Z" fill="white"/>
<path d="M13.6003 4.64898C13.6003 4.04801 13.7158 3.46688 13.9486 2.90561C14.1814 2.34434 14.5243 1.84984 14.9809 1.42393C15.4357 0.998012 16.0024 0.653309 16.681 0.391623C17.3595 0.129937 18.1428 0 19.0343 0C19.9259 0 20.7145 0.129937 21.4021 0.391623C22.0897 0.653309 22.6564 0.998012 23.1022 1.42393C23.5479 1.84984 23.8872 2.34434 24.1201 2.90561C24.3529 3.46688 24.4684 4.04981 24.4684 4.64898V35.4539C24.4684 36.0152 24.3619 36.5728 24.1489 37.1251C23.936 37.6773 23.6021 38.1772 23.1455 38.6212C22.6907 39.067 22.124 39.4297 21.4454 39.7112C20.7669 39.991 19.9638 40.1317 19.0325 40.1317C18.1013 40.1317 17.2982 39.9964 16.6196 39.7257C15.941 39.455 15.3743 39.0958 14.9195 38.6501C14.4648 38.2043 14.1291 37.7008 13.9161 37.1395C13.7032 36.5782 13.5967 36.0152 13.5967 35.4539V4.64898H13.6003ZM17.3487 35.3655C17.3487 35.7535 17.4841 36.0964 17.7548 36.3978C18.0255 36.6991 18.4622 36.8489 19.0632 36.8489C19.6642 36.8489 20.0666 36.6991 20.3283 36.3978C20.59 36.0982 20.7199 35.7535 20.7199 35.3655V4.76448C20.7199 4.37646 20.5846 4.03357 20.3139 3.73218C20.0432 3.43259 19.6173 3.28099 19.0343 3.28099C18.4514 3.28099 18.002 3.43079 17.7403 3.73218C17.4787 4.03357 17.3487 4.37646 17.3487 4.76448V35.3655Z" fill="white"/>
<path d="M27.2297 4.64898C27.2297 4.04801 27.3452 3.46688 27.578 2.90561C27.8108 2.34434 28.1537 1.84984 28.6103 1.42393C29.0651 0.998012 29.6318 0.653309 30.3104 0.391623C30.9889 0.129937 31.7722 0 32.6637 0C33.5553 0 34.3439 0.129937 35.0315 0.391623C35.7191 0.653309 36.2858 0.998012 36.7316 1.42393C37.1773 1.84984 37.5166 2.34434 37.7494 2.90561C37.9823 3.46688 38.0978 4.04981 38.0978 4.64898V35.4539C38.0978 36.0152 37.9913 36.5728 37.7783 37.1251C37.5654 37.6773 37.2315 38.1772 36.7749 38.6212C36.3201 39.067 35.7534 39.4297 35.0748 39.7112C34.3963 39.991 33.5932 40.1317 32.6619 40.1317C31.7307 40.1317 30.9276 39.9964 30.249 39.7257C29.5704 39.455 29.0037 39.0958 28.5489 38.6501C28.0941 38.2043 27.7585 37.7008 27.5455 37.1395C27.3326 36.5782 27.2261 36.0152 27.2261 35.4539V4.64898H27.2297ZM30.9781 35.3655C30.9781 35.7535 31.1135 36.0964 31.3842 36.3978C31.6549 36.6991 32.0916 36.8489 32.6926 36.8489C33.2936 36.8489 33.696 36.6991 33.9577 36.3978C34.2194 36.0982 34.3493 35.7535 34.3493 35.3655V4.76448C34.3493 4.37646 34.214 4.03357 33.9433 3.73218C33.6726 3.43259 33.2466 3.28099 32.6637 3.28099C32.0808 3.28099 31.6314 3.43079 31.3697 3.73218C31.108 4.03357 30.9781 4.37646 30.9781 4.76448V35.3655Z" fill="white"/>
<path d="M45.858 21.3012H44.6091V38.1862C44.6091 38.5923 44.4593 38.9316 44.1579 39.2041C43.8565 39.4748 43.5136 39.6102 43.1256 39.6102H41.5266C41.2541 39.6102 41.0755 39.5614 40.9888 39.464C40.9022 39.3665 40.8589 39.1825 40.8589 38.9117V1.24887C40.8589 0.978165 40.9022 0.794083 40.9888 0.696628C41.0755 0.599173 41.2559 0.550446 41.5266 0.550446H43.1256C43.5136 0.550446 43.8565 0.6858 44.1579 0.956509C44.4575 1.22722 44.6091 1.56651 44.6091 1.97438V18.1899H45.8887L48.4748 1.9455C48.5326 1.51959 48.7365 1.18029 49.0848 0.927633C49.4331 0.676776 49.8013 0.550446 50.1893 0.550446H51.9327C52.2233 0.550446 52.3929 0.599173 52.4416 0.696628C52.4904 0.794083 52.4958 0.967342 52.4561 1.22L49.4331 19.8195L52.4561 38.9424C52.494 39.1951 52.4904 39.3683 52.4416 39.4658C52.3929 39.5633 52.2233 39.612 51.9327 39.612H50.1893C49.8013 39.612 49.4295 39.4857 49.0704 39.2348C48.7113 38.9839 48.5127 38.6446 48.4748 38.2169L45.8598 21.303L45.858 21.3012Z" fill="white"/>
<path d="M66.5314 38.9406C66.5512 39.1933 66.526 39.3665 66.4592 39.464C66.3906 39.5615 66.221 39.6102 65.9502 39.6102H64.178C63.79 39.6102 63.4561 39.4839 63.1746 39.233C62.893 38.9821 62.7432 38.6428 62.7252 38.2151L62.3769 32.9255H59.123L58.7746 38.2151C58.7548 38.641 58.6104 38.9803 58.3379 39.233C58.0654 39.4857 57.7369 39.6102 57.3507 39.6102H55.5785C55.2879 39.6102 55.1092 39.5615 55.0407 39.464C54.9721 39.3665 54.9486 39.1933 54.9685 38.9406L58.1646 1.36438C58.2025 1.01607 58.3199 0.792279 58.513 0.696628C58.7061 0.599173 58.9677 0.550446 59.298 0.550446H62.2325C62.5808 0.550446 62.8425 0.599173 63.0176 0.696628C63.1926 0.794083 63.2973 1.01607 63.337 1.36438L66.5332 38.9406H66.5314ZM59.2655 29.8159H62.2289L60.7472 6.04404L59.2655 29.8159Z" fill="white"/>
<path d="M79.7528 38.9117C79.7528 39.1644 79.7041 39.3431 79.6066 39.4496C79.5092 39.556 79.3251 39.6102 79.0544 39.6102H77.5131C77.0872 39.6102 76.7281 39.4748 76.4375 39.2041C76.1469 38.9334 76.0008 38.5743 76.0008 38.1285V21.303H72.7757V38.1285C72.7757 38.5743 72.6295 38.9334 72.339 39.2041C72.0484 39.4748 71.6893 39.6102 71.2633 39.6102H69.7221C69.4496 39.6102 69.2673 39.5578 69.1699 39.4496C69.0724 39.3431 69.0237 39.1644 69.0237 38.9117V1.22C69.0237 0.969146 69.0616 0.794083 69.1392 0.696628C69.2168 0.599173 69.4009 0.550446 69.6914 0.550446H71.3193C71.7073 0.550446 72.0448 0.680388 72.3372 0.942074C72.6295 1.20376 72.7739 1.55749 72.7739 2.00326V18.161H75.999V2.00326C75.999 1.55749 76.1451 1.20376 76.4357 0.942074C76.7263 0.680388 77.0656 0.550446 77.4536 0.550446H79.0814C79.372 0.550446 79.5561 0.599173 79.6337 0.696628C79.7113 0.794083 79.7492 0.967342 79.7492 1.22V38.9117H79.7528Z" fill="white"/>
<path d="M5.49175 86.3238C4.63992 86.3238 3.87832 86.2083 3.21057 85.9754C2.54282 85.7426 1.97614 85.4196 1.51052 85.0027C1.0449 84.5858 0.691173 84.0931 0.449339 83.521C0.207505 82.9489 0.0865883 82.3353 0.0865883 81.6748V72.8984C0.0865883 72.5104 0.299546 72.3173 0.725462 72.3173H2.43995C2.57531 72.3173 2.7251 72.3371 2.89114 72.375C3.05537 72.4147 3.20516 72.4761 3.34232 72.5645C3.47767 72.6511 3.59318 72.7684 3.69063 72.9128C3.78809 73.059 3.83681 73.2287 3.83681 73.4218V81.5593C3.83681 81.9473 3.97217 82.2866 4.24288 82.5771C4.51359 82.8677 4.93048 83.0121 5.49175 83.0121C6.05302 83.0121 6.49879 82.8677 6.7713 82.5771C7.04201 82.2866 7.17737 81.9473 7.17737 81.5593C7.17737 79.6408 7.00231 77.8451 6.65399 76.1685C6.30568 74.4938 5.86352 72.8695 5.33113 71.3012C4.79873 69.7311 4.22663 68.1826 3.61664 66.6522C3.00664 65.1218 2.43454 63.5336 1.90214 61.8859C1.36975 60.24 0.929396 58.5111 0.579278 56.6991C0.230966 54.8872 0.0559082 52.9164 0.0559082 50.7851C0.0559082 50.1263 0.182239 49.5163 0.433096 48.9551C0.683953 48.3938 1.04309 47.9047 1.50871 47.4878C1.97433 47.0709 2.54102 46.7425 3.20877 46.5006C3.87652 46.2588 4.61826 46.1379 5.43219 46.1379C6.24612 46.1379 7.02035 46.2588 7.69893 46.5006C8.37751 46.7425 8.95863 47.0727 9.4423 47.4878C9.92597 47.9047 10.2941 48.3938 10.5468 48.9551C10.7977 49.5163 10.924 50.1281 10.924 50.7851V59.852C10.924 60.24 10.7002 60.4331 10.2562 60.4331H8.57062C8.28006 60.4331 7.97505 60.3465 7.65562 60.1714C7.33618 59.9964 7.17556 59.7058 7.17556 59.2998V50.9294C7.17556 50.5414 7.04021 50.1985 6.7695 49.8971C6.49879 49.5975 6.07287 49.4459 5.48994 49.4459C4.90702 49.4459 4.48291 49.6011 4.21039 49.9116C3.93968 50.222 3.80433 50.5613 3.80433 50.9294C3.80433 52.7125 3.97939 54.3981 4.3277 55.9863C4.67601 57.5744 5.11637 59.1391 5.65057 60.6804C6.18296 62.2198 6.75506 63.761 7.36506 65.3005C7.97506 66.8417 8.54715 68.4533 9.07955 70.139C9.61194 71.8246 10.0523 73.6112 10.4024 75.5008C10.7507 77.3903 10.9258 79.4477 10.9258 81.6766C10.9258 82.3353 10.7995 82.9507 10.5486 83.5228C10.2959 84.0949 9.9386 84.5894 9.47298 85.0045C9.00736 85.4214 8.43707 85.7463 7.75849 85.9773C7.07991 86.2101 6.32373 86.3256 5.49175 86.3256V86.3238Z" fill="white"/>
<path d="M21.7957 46.7136C22.2415 46.7136 22.4634 46.9662 22.4634 47.4698V48.022C22.4634 48.6428 22.3137 49.1175 22.0123 49.4459C21.7109 49.7762 21.2904 49.9404 20.7472 49.9404H17.5221V64.8204H21.2416C21.6874 64.8204 21.9094 65.0623 21.9094 65.5477V66.1288C21.9094 66.7497 21.7596 67.2243 21.4582 67.5528C21.1568 67.883 20.7363 68.0473 20.1931 68.0473H17.5203V82.5483H20.7453C21.2868 82.5483 21.7091 82.7089 22.0105 83.0283C22.31 83.3478 22.4616 83.8278 22.4616 84.4667V85.0189C22.4616 85.5224 22.2379 85.7751 21.7939 85.7751H14.6165C14.2483 85.7751 14.0155 85.7264 13.9199 85.6289C13.8224 85.5315 13.7737 85.3474 13.7737 85.0767V47.4138C13.7737 47.1431 13.817 46.959 13.9054 46.8616C13.9921 46.7641 14.1707 46.7154 14.4432 46.7154H21.7957V46.7136Z" fill="white"/>
<path d="M35.7444 85.0731C35.7444 85.3438 35.6956 85.5279 35.5982 85.6253C35.5007 85.7228 35.3166 85.7715 35.0459 85.7715H33.4469C33.0589 85.7715 32.7196 85.6362 32.4291 85.3655C32.1385 85.0947 31.9923 84.7555 31.9923 84.3476V71.0666C31.9923 70.6786 31.857 70.3357 31.5863 70.0343C31.3156 69.7347 30.8896 69.5831 30.3067 69.5831H28.65V84.3458C28.65 84.7518 28.5002 85.0911 28.1988 85.3636C27.8974 85.6344 27.5545 85.7697 27.1665 85.7697H25.5675C25.2968 85.7697 25.1163 85.721 25.0297 85.6235C24.9431 85.5261 24.8979 85.342 24.8979 85.0713V47.4084C24.8979 47.1377 24.9413 46.9536 25.0297 46.8562C25.1163 46.7587 25.295 46.71 25.5675 46.71H30.3627C31.2921 46.71 32.0916 46.8399 32.7612 47.1016C33.4307 47.3633 33.9866 47.7116 34.4323 48.1483C34.8781 48.5851 35.2066 49.0832 35.4195 49.6445C35.6325 50.2057 35.739 50.7887 35.739 51.3878V64.3205C35.739 66.0639 35.129 67.3236 33.909 68.0978C35.129 68.641 35.739 69.6192 35.739 71.0323V85.0695L35.7444 85.0731ZM28.6536 49.9386V66.3581H30.4547C30.7453 66.3581 30.9925 66.2949 31.1964 66.1686C31.4004 66.0422 31.5592 65.878 31.6765 65.6741C31.792 65.4701 31.875 65.2481 31.9238 65.0063C31.9725 64.7645 31.9959 64.5172 31.9959 64.2646V51.4203C31.9959 51.0323 31.8606 50.6894 31.5899 50.388C31.3192 50.0884 30.8933 49.9368 30.3103 49.9368H28.6536V49.9386Z" fill="white"/>
<path d="M45.7985 84.9576C45.7787 85.5008 45.4881 85.7715 44.9268 85.7715H41.5267C41.2362 85.7715 41.0286 85.7084 40.9023 85.582C40.776 85.4557 40.693 85.2481 40.6551 84.9576L37.4589 47.3813C37.4192 47.1305 37.439 46.9554 37.5166 46.858C37.5942 46.7605 37.7783 46.7118 38.0689 46.7118H39.639C40.027 46.7118 40.3843 46.8381 40.7146 47.089C41.0431 47.3416 41.2272 47.6809 41.2669 48.1068L43.243 80.2184L45.2192 48.1068C45.2571 47.6809 45.4376 47.3416 45.757 47.089C46.0765 46.8381 46.4302 46.7118 46.8182 46.7118H48.4172C48.7078 46.7118 48.8864 46.7605 48.955 46.858C49.0218 46.9554 49.047 47.1287 49.0272 47.3813L45.8021 84.9576H45.7985Z" fill="white"/>
<path d="M54.6039 84.9287C54.6039 85.4918 54.3224 85.7715 53.7611 85.7715H51.6694C51.1262 85.7715 50.8555 85.49 50.8555 84.9287V48.1664C50.8555 47.7206 51.0053 47.3669 51.3067 47.1052C51.6062 46.8435 51.9509 46.7136 52.339 46.7136H53.9379C54.2285 46.7136 54.4126 46.7623 54.4902 46.8598C54.5678 46.9572 54.6057 47.1305 54.6057 47.3831V84.9305L54.6039 84.9287Z" fill="white"/>
<path d="M62.9741 46.1325C63.8061 46.1325 64.5533 46.2534 65.212 46.4952C65.8707 46.737 66.432 47.0727 66.8976 47.4986C67.3632 47.9246 67.7206 48.4191 67.9732 48.9803C68.2241 49.5416 68.3504 50.1426 68.3504 50.7814V63.1619C68.3504 63.5499 68.1375 63.743 67.7116 63.743H66.0259C65.7354 63.743 65.4304 63.6564 65.1109 63.4813C64.7915 63.3063 64.6309 63.0265 64.6309 62.6385V50.9276C64.6309 50.5396 64.4847 50.1967 64.1941 49.8953C63.9036 49.5957 63.4777 49.4441 62.9146 49.4441C62.3515 49.4441 61.9364 49.5939 61.6657 49.8953C61.3932 50.1967 61.2596 50.5396 61.2596 50.9276V81.5575C61.2596 81.9455 61.395 82.2848 61.6657 82.5753C61.9364 82.8659 62.3623 83.0103 62.9453 83.0103C63.5643 83.0103 63.9956 82.8497 64.2393 82.5302C64.4811 82.2108 64.602 81.8859 64.602 81.5575V69.8755C64.602 69.6824 64.6507 69.5127 64.7482 69.3665C64.8456 69.2222 64.9611 69.1048 65.0965 69.0182C65.2319 68.9316 65.3816 68.8684 65.5459 68.8287C65.7101 68.7908 65.8599 68.771 65.9971 68.771H67.6827C68.1285 68.771 68.3504 68.9551 68.3504 69.3232V81.6748C68.3504 82.3335 68.2241 82.9489 67.9732 83.521C67.7206 84.0931 67.3578 84.5876 66.8832 85.0027C66.4085 85.4196 65.8328 85.7444 65.1543 85.9754C64.4757 86.2083 63.7195 86.3238 62.8875 86.3238C62.0555 86.3238 61.3084 86.2083 60.6497 85.9754C59.9909 85.7426 59.4297 85.4196 58.964 85.0027C58.4984 84.5858 58.1411 84.0931 57.8884 83.521C57.6358 82.9489 57.5112 82.3353 57.5112 81.6748V50.7832C57.5112 50.1245 57.6376 49.5145 57.8884 48.9533C58.1393 48.392 58.5038 47.9029 58.9785 47.486C59.4531 47.0691 60.0288 46.7407 60.7074 46.4988C61.386 46.257 62.1404 46.1361 62.9741 46.1361V46.1325Z" fill="white"/>
<path d="M79.2763 46.7136C79.7221 46.7136 79.9441 46.9662 79.9441 47.4698V48.022C79.9441 48.6428 79.7943 49.1175 79.4929 49.4459C79.1915 49.7762 78.771 49.9404 78.2278 49.9404H75.0027V64.8204H78.7223C79.168 64.8204 79.39 65.0623 79.39 65.5477V66.1288C79.39 66.7497 79.2402 67.2243 78.9388 67.5528C78.6374 67.883 78.2169 68.0473 77.6755 68.0473H75.0027V82.5483H78.2278C78.7692 82.5483 79.1915 82.7089 79.4929 83.0283C79.7925 83.3478 79.9441 83.8278 79.9441 84.4667V85.0189C79.9441 85.5224 79.7203 85.7751 79.2763 85.7751H72.0989C71.7307 85.7751 71.4979 85.7264 71.4023 85.6289C71.3048 85.5315 71.2561 85.3474 71.2561 85.0767V47.4138C71.2561 47.1431 71.2994 46.959 71.386 46.8616C71.4727 46.7641 71.6531 46.7154 71.9239 46.7154H79.2763V46.7136Z" fill="white"/>
</svg>
