<svg width="0" height="0" class="hidden">
  <symbol fill="none" xmlns="http://www.w3.org/2000/svg" viewBox="0 0 49 48" id="ic_access_denied">
    <path d="M24.5 44C21.7333 44 19.1333 43.475 16.7 42.425C14.2667 41.375 12.15 39.95 10.35 38.15C8.55 36.35 7.125 34.2333 6.075 31.8C5.025 29.3667 4.5 26.7667 4.5 24C4.5 21.2333 5.025 18.6333 6.075 16.2C7.125 13.7667 8.55 11.65 10.35 9.85C12.15 8.05 14.2667 6.625 16.7 5.575C19.1333 4.525 21.7333 4 24.5 4C27.2667 4 29.8667 4.525 32.3 5.575C34.7333 6.625 36.85 8.05 38.65 9.85C40.45 11.65 41.875 13.7667 42.925 16.2C43.975 18.6333 44.5 21.2333 44.5 24C44.5 26.7667 43.975 29.3667 42.925 31.8C41.875 34.2333 40.45 36.35 38.65 38.15C36.85 39.95 34.7333 41.375 32.3 42.425C29.8667 43.475 27.2667 44 24.5 44ZM24.5 40C26.3 40 28.0333 39.7083 29.7 39.125C31.3667 38.5417 32.9 37.7 34.3 36.6L11.9 14.2C10.8 15.6 9.95833 17.1333 9.375 18.8C8.79167 20.4667 8.5 22.2 8.5 24C8.5 28.4667 10.05 32.25 13.15 35.35C16.25 38.45 20.0333 40 24.5 40ZM37.1 33.8C38.2 32.4 39.0417 30.8667 39.625 29.2C40.2083 27.5333 40.5 25.8 40.5 24C40.5 19.5333 38.95 15.75 35.85 12.65C32.75 9.55 28.9667 8 24.5 8C22.7 8 20.9667 8.29167 19.3 8.875C17.6333 9.45833 16.1 10.3 14.7 11.4L37.1 33.8Z" fill="currentColor"></path>
  </symbol>
  <symbol fill="none" xmlns="http://www.w3.org/2000/svg" viewBox="0 0 24 24" id="ic_arr_hor">
    <path d="M16 22L6 12L16 2L17.775 3.775L9.55 12L17.775 20.225L16 22Z" fill="currentColor"></path>
  </symbol>
  <symbol fill="none" xmlns="http://www.w3.org/2000/svg" viewBox="0 0 24 24" id="ic_arrow_hor">
    <path d="M16.175 13H4V11H16.175L10.575 5.4L12 4L20 12L12 20L10.575 18.6L16.175 13Z" fill="currentColor"></path>
  </symbol>
  <symbol fill="none" xmlns="http://www.w3.org/2000/svg" viewBox="0 0 10 8" id="ic_check">
    <path d="M3.57277 6.00686L1.36015 3.79424L0.606689 4.54239L3.57277 7.50847L9.94002 1.14122L9.19187 0.393066L3.57277 6.00686Z" fill="currentColor"></path>
  </symbol>
  <symbol fill="none" xmlns="http://www.w3.org/2000/svg" viewBox="0 0 22 22" id="ic_close">
    <path d="M6.1 17.125L4.875 15.9L9.775 11L4.875 6.1L6.1 4.875L11 9.775L15.9 4.875L17.125 6.1L12.225 11L17.125 15.9L15.9 17.125L11 12.225L6.1 17.125Z" fill="currentColor"></path>
  </symbol>
  <symbol fill="none" xmlns="http://www.w3.org/2000/svg" viewBox="0 0 16 16" id="ic_email">
    <path d="M2 13.3332V2.6665L14.6667 7.99984L2 13.3332ZM3.33333 11.3332L11.2333 7.99984L3.33333 4.6665V6.99984L7.33333 7.99984L3.33333 8.99984V11.3332Z" fill="currentColor"></path>
  </symbol>
  <symbol fill="none" xmlns="http://www.w3.org/2000/svg" viewBox="0 0 16 16" id="ic_location">
    <path d="M8.00008 7.99992C8.36675 7.99992 8.68064 7.86936 8.94175 7.60825C9.20286 7.34714 9.33342 7.03325 9.33342 6.66658C9.33342 6.29992 9.20286 5.98603 8.94175 5.72492C8.68064 5.46381 8.36675 5.33325 8.00008 5.33325C7.63341 5.33325 7.31953 5.46381 7.05841 5.72492C6.7973 5.98603 6.66675 6.29992 6.66675 6.66658C6.66675 7.03325 6.7973 7.34714 7.05841 7.60825C7.31953 7.86936 7.63341 7.99992 8.00008 7.99992ZM8.00008 12.8999C9.35564 11.6555 10.3612 10.5249 11.0167 9.50825C11.6723 8.49158 12.0001 7.58881 12.0001 6.79992C12.0001 5.58881 11.614 4.59714 10.8417 3.82492C10.0695 3.0527 9.1223 2.66659 8.00008 2.66659C6.87786 2.66659 5.93064 3.0527 5.15841 3.82492C4.38619 4.59714 4.00008 5.58881 4.00008 6.79992C4.00008 7.58881 4.32786 8.49158 4.98341 9.50825C5.63897 10.5249 6.64453 11.6555 8.00008 12.8999ZM8.00008 14.6666C6.21119 13.1444 4.87508 11.7305 3.99175 10.4249C3.10841 9.11936 2.66675 7.91103 2.66675 6.79992C2.66675 5.13325 3.20286 3.80547 4.27508 2.81659C5.3473 1.8277 6.58897 1.33325 8.00008 1.33325C9.41119 1.33325 10.6529 1.8277 11.7251 2.81659C12.7973 3.80547 13.3334 5.13325 13.3334 6.79992C13.3334 7.91103 12.8917 9.11936 12.0084 10.4249C11.1251 11.7305 9.78897 13.1444 8.00008 14.6666Z" fill="currentColor"></path>
  </symbol>
  <symbol fill="none" xmlns="http://www.w3.org/2000/svg" viewBox="0 0 16 16" id="ic_phone">
    <path d="M13.3 14C11.9111 14 10.5389 13.6972 9.18333 13.0917C7.82778 12.4861 6.59444 11.6278 5.48333 10.5167C4.37222 9.40556 3.51389 8.17222 2.90833 6.81667C2.30278 5.46111 2 4.08889 2 2.7C2 2.5 2.06667 2.33333 2.2 2.2C2.33333 2.06667 2.5 2 2.7 2H5.4C5.55556 2 5.69444 2.05278 5.81667 2.15833C5.93889 2.26389 6.01111 2.38889 6.03333 2.53333L6.46667 4.86667C6.48889 5.04444 6.48333 5.19444 6.45 5.31667C6.41667 5.43889 6.35556 5.54444 6.26667 5.63333L4.65 7.26667C4.87222 7.67778 5.13611 8.075 5.44167 8.45833C5.74722 8.84167 6.08333 9.21111 6.45 9.56667C6.79444 9.91111 7.15556 10.2306 7.53333 10.525C7.91111 10.8194 8.31111 11.0889 8.73333 11.3333L10.3 9.76667C10.4 9.66667 10.5306 9.59167 10.6917 9.54167C10.8528 9.49167 11.0111 9.47778 11.1667 9.5L13.4667 9.96667C13.6222 10.0111 13.75 10.0917 13.85 10.2083C13.95 10.325 14 10.4556 14 10.6V13.3C14 13.5 13.9333 13.6667 13.8 13.8C13.6667 13.9333 13.5 14 13.3 14ZM4.01667 6L5.11667 4.9L4.83333 3.33333H3.35C3.40556 3.78889 3.48333 4.23889 3.58333 4.68333C3.68333 5.12778 3.82778 5.56667 4.01667 6ZM9.98333 11.9667C10.4167 12.1556 10.8583 12.3056 11.3083 12.4167C11.7583 12.5278 12.2111 12.6 12.6667 12.6333V11.1667L11.1 10.85L9.98333 11.9667Z" fill="currentColor"></path>
  </symbol>
  <symbol fill="none" xmlns="http://www.w3.org/2000/svg" viewBox="0 0 24 24" id="ic_tg">
    <path d="M11.625 0.375C18.0469 0.375 23.25 5.57812 23.25 12C23.25 18.4219 18.0469 23.625 11.625 23.625C5.20312 23.625 0 18.4219 0 12C0 5.57812 5.20312 0.375 11.625 0.375ZM17.2969 8.34375C17.4844 7.59375 17.0156 7.26562 16.5 7.45312L5.29688 11.7656C4.54688 12.0469 4.54688 12.5156 5.15625 12.7031L8.01562 13.5938L14.6719 9.375C15 9.1875 15.2812 9.32812 15.0469 9.51562L9.65625 14.3906L9.46875 17.3438C9.75 17.3438 9.89062 17.2031 10.0312 17.0625L11.4375 15.7031L14.3438 17.8594C14.9062 18.1406 15.2812 18 15.4219 17.3438L17.2969 8.34375Z" fill="currentColor"></path>
  </symbol>
  <symbol fill="none" xmlns="http://www.w3.org/2000/svg" viewBox="0 0 24 24" id="ic_upload">
    <path d="M11 19H13V14.825L14.6 16.425L16 15L12 11L8 15L9.425 16.4L11 14.825V19ZM6 22C5.45 22 4.97917 21.8042 4.5875 21.4125C4.19583 21.0208 4 20.55 4 20V4C4 3.45 4.19583 2.97917 4.5875 2.5875C4.97917 2.19583 5.45 2 6 2H14L20 8V20C20 20.55 19.8042 21.0208 19.4125 21.4125C19.0208 21.8042 18.55 22 18 22H6ZM13 9V4H6V20H18V9H13Z" fill="currentColor"></path>
  </symbol>
  <symbol fill="none" xmlns="http://www.w3.org/2000/svg" viewBox="0 0 27 16" id="ic_vk">
    <path d="M25.5469 1.53125C25.1719 3.125 21.7969 7.90625 21.7969 7.90625C21.5156 8.375 21.375 8.60938 21.7969 9.125C21.9844 9.35938 25.5 12.7344 26.0156 14.3281C26.25 15.125 25.875 15.5 25.0781 15.5H22.3125C21.2812 15.5 20.9531 14.7031 19.0781 12.8281C17.4375 11.2344 16.7344 11 16.3125 11C15.4688 11 15.6094 11.3281 15.6094 14.4688C15.6094 15.125 15.375 15.5 13.6406 15.5C10.7344 15.5 7.5 13.7656 5.20312 10.4844C1.78125 5.65625 0.84375 2.04688 0.84375 1.29688C0.84375 0.875 1.03125 0.5 1.78125 0.5H4.54688C5.25 0.5 5.53125 0.828125 5.8125 1.57812C7.17188 5.51562 9.42188 8.98438 10.3594 8.98438C10.7344 8.98438 10.875 8.79688 10.875 7.90625V3.82812C10.7812 1.95312 9.79688 1.8125 9.79688 1.15625C9.79688 0.828125 10.0312 0.5 10.5 0.5H14.8125C15.4219 0.5 15.6094 0.828125 15.6094 1.53125V7.01562C15.6094 7.57812 15.8906 7.8125 16.0312 7.8125C16.4062 7.8125 16.6875 7.57812 17.3438 6.96875C19.3125 4.71875 20.7188 1.29688 20.7188 1.29688C20.9062 0.875 21.2344 0.5 21.9375 0.5H24.7031C25.5469 0.5 25.6875 0.96875 25.5469 1.53125Z" fill="currentColor"></path>
  </symbol>
  <symbol fill="none" xmlns="http://www.w3.org/2000/svg" viewBox="0 0 48 48" id="ic_warning">
    <path d="M2 42L24 4L46 42H2ZM8.9 38H39.1L24 12L8.9 38ZM24 36C24.5667 36 25.0417 35.8083 25.425 35.425C25.8083 35.0417 26 34.5667 26 34C26 33.4333 25.8083 32.9583 25.425 32.575C25.0417 32.1917 24.5667 32 24 32C23.4333 32 22.9583 32.1917 22.575 32.575C22.1917 32.9583 22 33.4333 22 34C22 34.5667 22.1917 35.0417 22.575 35.425C22.9583 35.8083 23.4333 36 24 36ZM22 30H26V20H22V30Z" fill="currentColor"></path>
  </symbol>
</svg>